<svg width="361" height="35" xmlns="http://www.w3.org/2000/svg"><path d="M4.832 14.824H.512v-4.608L5.12 10l.792-4.68h5.112V10h7.128v4.824h-7.128v5.436c0 1.296.294 2.178.882 2.646.588.468 1.458.702 2.61.702.624 0 1.206-.054 1.746-.162a11.39 11.39 0 0 0 1.53-.414l1.08 4.464a44.61 44.61 0 0 1-2.664.63c-.984.204-2.088.306-3.312.306-1.488 0-2.742-.192-3.762-.576-1.02-.384-1.848-.93-2.484-1.638-.636-.708-1.098-1.56-1.386-2.556-.288-.996-.432-2.094-.432-3.294v-5.544zM22.4 19c0-1.464.264-2.784.792-3.96.528-1.176 1.23-2.166 2.106-2.97a9.3 9.3 0 0 1 3.024-1.854 9.828 9.828 0 0 1 3.51-.648c1.416 0 2.658.228 3.726.684 1.068.456 1.962 1.08 2.682 1.872a7.821 7.821 0 0 1 1.62 2.772c.36 1.056.54 2.184.54 3.384 0 .552-.03 1.068-.09 1.548s-.114.828-.162 1.044H28.736c.096.552.288 1.014.576 1.386.288.372.642.666 1.062.882.42.216.882.372 1.386.468a8.453 8.453 0 0 0 1.584.144c.72 0 1.422-.09 2.106-.27.684-.18 1.422-.45 2.214-.81l2.016 3.672a12.532 12.532 0 0 1-3.564 1.566c-1.296.348-2.508.522-3.636.522-1.416 0-2.742-.21-3.978-.63-1.236-.42-2.304-1.032-3.204-1.836-.9-.804-1.608-1.794-2.124-2.97-.516-1.176-.774-2.508-.774-3.996zm12.384-2.16c0-.72-.204-1.332-.612-1.836-.408-.504-1.14-.756-2.196-.756-.768 0-1.458.198-2.07.594-.612.396-1.026 1.062-1.242 1.998h6.12zM44.432 19c0-1.488.288-2.82.864-3.996a8.856 8.856 0 0 1 2.322-2.97 10.28 10.28 0 0 1 3.366-1.836c1.272-.42 2.604-.63 3.996-.63 1.416 0 2.712.216 3.888.648 1.176.432 2.148 1.008 2.916 1.728l-2.808 3.816c-.672-.456-1.302-.774-1.89-.954a5.941 5.941 0 0 0-1.746-.27c-1.368 0-2.472.402-3.312 1.206-.84.804-1.26 1.89-1.26 3.258s.408 2.454 1.224 3.258c.816.804 1.86 1.206 3.132 1.206.888 0 1.698-.156 2.43-.468.732-.312 1.41-.66 2.034-1.044l2.448 3.888a10.882 10.882 0 0 1-3.708 1.98c-1.344.408-2.616.612-3.816.612-1.416 0-2.742-.21-3.978-.63-1.236-.42-2.304-1.032-3.204-1.836-.9-.804-1.608-1.794-2.124-2.97-.516-1.176-.774-2.508-.774-3.996zM66.104 2.944h6.192v5.832l-.324 3.168c.6-.576 1.38-1.116 2.34-1.62s2.112-.756 3.456-.756c1.968 0 3.408.666 4.32 1.998.912 1.332 1.368 3.114 1.368 5.346V28h-6.192V17.704c0-1.008-.15-1.74-.45-2.196-.3-.456-.846-.684-1.638-.684-.576 0-1.08.12-1.512.36-.432.24-.888.576-1.368 1.008V28h-6.192V2.944zm25.416 9.648c0-.648.114-1.254.342-1.818a4.532 4.532 0 0 1 .954-1.476c.408-.42.9-.756 1.476-1.008a4.71 4.71 0 0 1 1.908-.378 4.71 4.71 0 0 1 1.908.378 4.603 4.603 0 0 1 1.476 1.008c.408.42.726.912.954 1.476.228.564.342 1.17.342 1.818 0 .648-.114 1.254-.342 1.818a4.744 4.744 0 0 1-.954 1.494 4.25 4.25 0 0 1-1.476 1.008c-.576.24-1.212.36-1.908.36s-1.332-.12-1.908-.36a4.25 4.25 0 0 1-1.476-1.008 4.744 4.744 0 0 1-.954-1.494 4.805 4.805 0 0 1-.342-1.818zm0 11.16c0-.648.114-1.254.342-1.818a4.532 4.532 0 0 1 .954-1.476c.408-.42.9-.756 1.476-1.008a4.71 4.71 0 0 1 1.908-.378 4.71 4.71 0 0 1 1.908.378 4.603 4.603 0 0 1 1.476 1.008c.408.42.726.912.954 1.476.228.564.342 1.17.342 1.818 0 .648-.114 1.254-.342 1.818a4.744 4.744 0 0 1-.954 1.494 4.25 4.25 0 0 1-1.476 1.008c-.576.24-1.212.36-1.908.36s-1.332-.12-1.908-.36a4.25 4.25 0 0 1-1.476-1.008 4.744 4.744 0 0 1-.954-1.494 4.805 4.805 0 0 1-.342-1.818zM108.8 19c0-1.464.264-2.784.792-3.96.528-1.176 1.23-2.166 2.106-2.97a9.3 9.3 0 0 1 3.024-1.854 9.828 9.828 0 0 1 3.51-.648c1.416 0 2.658.228 3.726.684 1.068.456 1.962 1.08 2.682 1.872a7.821 7.821 0 0 1 1.62 2.772c.36 1.056.54 2.184.54 3.384 0 .552-.03 1.068-.09 1.548s-.114.828-.162 1.044h-11.412c.096.552.288 1.014.576 1.386.288.372.642.666 1.062.882.42.216.882.372 1.386.468a8.453 8.453 0 0 0 1.584.144c.72 0 1.422-.09 2.106-.27.684-.18 1.422-.45 2.214-.81l2.016 3.672a12.532 12.532 0 0 1-3.564 1.566c-1.296.348-2.508.522-3.636.522-1.416 0-2.742-.21-3.978-.63-1.236-.42-2.304-1.032-3.204-1.836-.9-.804-1.608-1.794-2.124-2.97-.516-1.176-.774-2.508-.774-3.996zm12.384-2.16c0-.72-.204-1.332-.612-1.836-.408-.504-1.14-.756-2.196-.756-.768 0-1.458.198-2.07.594-.612.396-1.026 1.062-1.242 1.998h6.12zm13.248-2.016h-4.32v-4.608L134.72 10l.792-4.68h5.112V10h7.128v4.824h-7.128v5.436c0 1.296.294 2.178.882 2.646.588.468 1.458.702 2.61.702.624 0 1.206-.054 1.746-.162a11.39 11.39 0 0 0 1.53-.414l1.08 4.464a44.61 44.61 0 0 1-2.664.63c-.984.204-2.088.306-3.312.306-1.488 0-2.742-.192-3.762-.576-1.02-.384-1.848-.93-2.484-1.638-.636-.708-1.098-1.56-1.386-2.556-.288-.996-.432-2.094-.432-3.294v-5.544zm18.072-11.88h6.192v5.832l-.324 3.168c.6-.576 1.38-1.116 2.34-1.62s2.112-.756 3.456-.756c1.968 0 3.408.666 4.32 1.998.912 1.332 1.368 3.114 1.368 5.346V28h-6.192V17.704c0-1.008-.15-1.74-.45-2.196-.3-.456-.846-.684-1.638-.684-.576 0-1.08.12-1.512.36-.432.24-.888.576-1.368 1.008V28h-6.192V2.944zM174.464 10h13.032v18h-6.192V14.824h-6.84V10zm9.72-2.232c-1.152 0-2.1-.33-2.844-.99-.744-.66-1.116-1.53-1.116-2.61 0-1.08.372-1.962 1.116-2.646.744-.684 1.692-1.026 2.844-1.026s2.1.342 2.844 1.026c.744.684 1.116 1.566 1.116 2.646 0 1.08-.372 1.95-1.116 2.61-.744.66-1.692.99-2.844.99zM195.632 19c0-1.488.288-2.82.864-3.996a8.856 8.856 0 0 1 2.322-2.97 10.28 10.28 0 0 1 3.366-1.836c1.272-.42 2.604-.63 3.996-.63 1.416 0 2.712.216 3.888.648 1.176.432 2.148 1.008 2.916 1.728l-2.808 3.816c-.672-.456-1.302-.774-1.89-.954a5.941 5.941 0 0 0-1.746-.27c-1.368 0-2.472.402-3.312 1.206-.84.804-1.26 1.89-1.26 3.258s.408 2.454 1.224 3.258c.816.804 1.86 1.206 3.132 1.206.888 0 1.698-.156 2.43-.468.732-.312 1.41-.66 2.034-1.044l2.448 3.888a10.882 10.882 0 0 1-3.708 1.98c-1.344.408-2.616.612-3.816.612-1.416 0-2.742-.21-3.978-.63-1.236-.42-2.304-1.032-3.204-1.836-.9-.804-1.608-1.794-2.124-2.97-.516-1.176-.774-2.508-.774-3.996zm23.76 2.88a18.036 18.036 0 0 0 3.096 1.476 9.14 9.14 0 0 0 3.096.54c1.08 0 1.836-.09 2.268-.27.432-.18.648-.45.648-.81 0-.24-.12-.45-.36-.63s-.564-.348-.972-.504a18.04 18.04 0 0 0-1.422-.468l-1.674-.486a23.453 23.453 0 0 1-2.232-.774 9.536 9.536 0 0 1-2.016-1.098 6.01 6.01 0 0 1-1.476-1.494c-.384-.564-.576-1.218-.576-1.962 0-.888.204-1.692.612-2.412.408-.72.99-1.332 1.746-1.836s1.662-.894 2.718-1.17c1.056-.276 2.244-.414 3.564-.414 1.704 0 3.216.27 4.536.81 1.32.54 2.46 1.11 3.42 1.71l-2.736 3.672c-.84-.48-1.68-.876-2.52-1.188a7.29 7.29 0 0 0-2.556-.468c-.936 0-1.608.078-2.016.234-.408.156-.612.414-.612.774 0 .24.114.444.342.612.228.168.54.324.936.468.396.144.852.288 1.368.432.516.144 1.062.288 1.638.432.768.216 1.536.462 2.304.738a9.043 9.043 0 0 1 2.07 1.044c.612.42 1.11.924 1.494 1.512.384.588.576 1.29.576 2.106a4.88 4.88 0 0 1-.594 2.358c-.396.732-.984 1.368-1.764 1.908-.78.54-1.74.96-2.88 1.26-1.14.3-2.466.45-3.978.45-1.56 0-3.126-.264-4.698-.792-1.572-.528-2.934-1.176-4.086-1.944l2.736-3.816zm52.38 12.6c-2.304-2.136-4.122-4.578-5.454-7.326-1.332-2.748-1.998-5.802-1.998-9.162 0-3.36.666-6.414 1.998-9.162 1.332-2.748 3.15-5.19 5.454-7.326l3.42 2.664a26.377 26.377 0 0 0-2.61 3.168 17.8 17.8 0 0 0-1.8 3.258 16.474 16.474 0 0 0-1.026 3.492 22.272 22.272 0 0 0-.324 3.906c0 1.392.108 2.694.324 3.906a16.474 16.474 0 0 0 1.026 3.492 17.8 17.8 0 0 0 1.8 3.258 26.377 26.377 0 0 0 2.61 3.168l-3.42 2.664zm12.132-20.52l14.112-9v5.544l-9.072 5.472v.144l9.072 5.472v5.544l-14.112-9V13.96zm24.912 19.8h-5.112l11.88-31.32h5.112l-11.88 31.32zm18.288-12.456a10.17 10.17 0 0 0 2.52 1.566c.912.396 1.8.594 2.664.594 1.128 0 2.046-.18 2.754-.54.708-.36 1.062-.9 1.062-1.62 0-.432-.09-.816-.27-1.152-.18-.336-.51-.624-.99-.864s-1.128-.42-1.944-.54c-.816-.12-1.86-.18-3.132-.18v-4.32c2.064 0 3.516-.234 4.356-.702.84-.468 1.26-1.098 1.26-1.89 0-.696-.252-1.218-.756-1.566-.504-.348-1.212-.522-2.124-.522-.84 0-1.608.156-2.304.468-.696.312-1.44.78-2.232 1.404l-3.096-3.744a14.542 14.542 0 0 1 3.726-2.178c1.308-.516 2.706-.774 4.194-.774 1.32 0 2.52.144 3.6.432 1.08.288 2.004.702 2.772 1.242a5.621 5.621 0 0 1 1.782 2.016c.42.804.63 1.722.63 2.754 0 1.104-.354 2.064-1.062 2.88-.708.816-1.746 1.5-3.114 2.052v.144c1.416.408 2.586 1.062 3.51 1.962.924.9 1.386 2.07 1.386 3.51 0 1.08-.258 2.034-.774 2.862a6.92 6.92 0 0 1-2.07 2.106c-.864.576-1.86 1.008-2.988 1.296a14.207 14.207 0 0 1-3.528.432c-1.944 0-3.642-.288-5.094-.864-1.452-.576-2.634-1.368-3.546-2.376l2.808-3.888zm22.104 10.512a26.377 26.377 0 0 0 2.61-3.168 17.8 17.8 0 0 0 1.8-3.258c.468-1.116.81-2.28 1.026-3.492.216-1.212.324-2.514.324-3.906 0-1.392-.108-2.694-.324-3.906a16.474 16.474 0 0 0-1.026-3.492 17.8 17.8 0 0 0-1.8-3.258 26.377 26.377 0 0 0-2.61-3.168l3.42-2.664c2.304 2.136 4.122 4.578 5.454 7.326 1.332 2.748 1.998 5.802 1.998 9.162 0 3.36-.666 6.414-1.998 9.162-1.332 2.748-3.15 5.19-5.454 7.326l-3.42-2.664z" fill="#000" fill-rule="evenodd"/></svg>
