<svg xmlns="http://www.w3.org/2000/svg" viewBox="0 0 343.63 42.35"><path d="M340 19.4v21h-31V24.91l10 1.85v4.69h10.72v-4.23l-20.75-4.41V4h31v13.81c-3.18-.5-6.35-1-9.52-1.53a1.13 1.13 0 0 1-.62-.83 24.72 24.72 0 0 1 0-2.57H319v2.75zM50.39 26.74v4.09H69.7v9.53H39.94V3.86h29v9.53H50.45v4.28h14.8v9.07zM156 40.35V3.89h29v9.5h-18.49v4.28h14.8v9.07h-14.82v4.09h19.27v9.52zM102.27 19.61h-10v-5.17H81.59v15.89h20.89v10.14H71.1V4.11h31.17zM276.15 40.49V4.09h31.2V19.6h-10v-5.14h-10.7v15.87h20.89v10.16zM124.48 26.89h-10.24v13.57h-10.46V4h10.32v13.47h10.46V4h10.31v36.45h-10.39zM223.14 3.93h10.3v13.55H244V4h10.3v36.46h-10.47V26.91h-10.2v13.51h-10.49zM26.84 40.49h-11l.41-27H4V4h34.55v9.4H26.4zM221.7 13.41h-12.13l.43 27.06h-11l.42-27.06h-12.26V4h34.54zM255.81 31.32H260V13.21h-4.3V4h19.07v9.15h-4.26v18.11h4.28v9.18h-19zM145.39 7.44a4.8 4.8 0 0 1 4.9 4.94 4.91 4.91 0 1 1-9.81-.3 4.82 4.82 0 0 1 4.91-4.64zM140.47 33.76a4.91 4.91 0 0 1 9.81.07 4.91 4.91 0 1 1-9.81-.07z"/></svg>
