<svg xmlns="http://www.w3.org/2000/svg" viewBox="0 0 342.34 41.32"><path d="M74.08 41.15V30.41H52.35V25.8h16.8V15.57H52.36v-4.86h20.79V.04H40.51v41.11zM204.15 0h-32.69v41.16h33.56V30.41h-21.73V25.8H200V15.57h-16.7v-4.86h20.85zM75.73.21v41.1h35.34V29.85H87.51V11.94h12.1v5.77h11.24V.21zm266.6 41.1V29.85h-23.56V11.94h12.09v5.77h11.29V.27h-35.16v41zm-218-.05V26.02h11.56v15.23h11.74V.15h-11.68v15.18h-11.8V.14h-11.6v41.12zm134.42-25.91V.12h-11.6v41.1h11.83V26h11.5v15.27h11.74V.13H270.6v15.22zM13.8 10.71l-.48 30.54h12.44l-.48-30.54h13.68V.11H0v10.6zm231.7 0V.13h-38.93v10.65h13.79l-.47 30.5h12.43l-.48-30.57zm55.07 20.21V10.44h4.8V.13h-21.5v10.42h4.84v20.47h-4.74v10.22h21.48V30.96h-4.88zM159.45 4.04a5.44 5.44 0 0 0-5.54 5.23 5.54 5.54 0 1 0 11.07.34 5.41 5.41 0 0 0-5.53-5.57zm-5.54 29.67a5.54 5.54 0 1 0 11.07.07 5.535 5.535 0 0 0-11.07-.07z" fill="#fff"/><path d="M74.08 41.15H40.51V.04h32.64v10.67H52.36v4.82h16.79V25.8h-16.8v4.61h21.73zM204.15 0v10.71H183.3v4.82H200V25.8h-16.71v4.61h21.73v10.75h-33.56V0zM75.73.21h35.11v17.5H99.6v-5.8H87.51v17.94h23.56v11.47H75.73zM342.33 41.32h-35.34V.27h35.16v17.44h-11.29v-5.8h-12.09v17.94h23.56zM124.35 41.26h-11.8V.14h11.6v15.19h11.8V.15h11.69v41.1H135.9V26.02h-11.55zM258.75 15.35h11.85V.13h11.62v41.14h-11.74V26h-11.5v15.23h-11.83V.12h11.6zM13.8 10.71H0V.11h39v10.6H25.28l.48 30.55H13.33zM245.5 10.71h-13.66l.48 30.53h-12.43l.47-30.5h-13.79V.13h38.93zM300.57 30.96h4.88v10.28h-21.47V31.02h4.74V10.55h-4.84V.13h21.5v10.31h-4.8zM159.45 4.04a5.41 5.41 0 0 1 5.52 5.57 5.54 5.54 0 1 1-11.07-.34 5.44 5.44 0 0 1 5.55-5.23zM153.91 33.71a5.535 5.535 0 0 1 11.07.07 5.54 5.54 0 1 1-11.07-.07z"/></svg>
