<svg data-name="Layer 1" xmlns="http://www.w3.org/2000/svg" viewBox="0 0 343.63 67.19"><path d="M321.64 50.42l5.92 2.6.47-.52-1.55-3.4 8.21-3.45 6.17 12.86-8.65 5-2.21-6.9c-1.36 6.93-6.11 7.85-11.35 7.8-3.61 0-7.24-.12-10.83-.5-3.17-.33-4.33-1.85-4.5-5-.05-1 0-2-.05-3.07s0-1.89 0-3.44L298 64.06l-6.24-4.41v5.11h-10.31V40.43l-3 2.58-3.75-10.62A48.53 48.53 0 0 0 289 16l6.12 4.87v-5.69h8.12c1.89 0 3.78-.05 5.67 0 1.54.06 2.27-.43 1.7-2.25h-16.04l-.22-3-13.87 11.4-5.13-9.53c5-3.14 10.12-6.37 13.73-12 6.07 6.79 14 4.71 21.56 4.93V1.21h10.58l.16 3.39h18.12v8.23h-18c-.54 1.71-.13 2.4 1.66 2.37 4.63-.08 9.27 0 14.07 0v18.86H295.3v-8.72c-1.68 2.11-3.92 3.7-3.84 6.93.19 7.69.06 15.38.06 23.07l.64.2 4-9.56 6.68 3 .36-2h9.16l.26-.82c-1.17-.45-2.32-1.25-3.5-1.28-5.1-.14-10.21-.06-15.47-.06v-8.49h45.85v8.53h-17.18l2.88 3.65-3.55 2-3.8 2.73-4.16-5.38a21 21 0 0 0-.43 6.07 2.1 2.1 0 0 0 1.09 1.53c4.57 1.6 7.2-.24 7.29-5.04zm-17.71-27.51v3.48H307v-3.62h-2.06c-.31.02-.61.08-1.01.14zm10.81 3.5c3.42.26 3.57.08 2.89-3.48h-2.89zm13.73-.09V23h-3c-.31 3.66-.26 3.72 3 3.32zM208 8.38l7.59-7 11.82 11.43V7.64h7.73l-2.78-4.7c3.06-.67 5.94-1.36 8.86-1.88.47-.08 1.24.48 1.58 1a19.86 19.86 0 0 1 2.28 3.85c.65 1.58 1.71 1.79 3.26 2 2.86.37 3.62-1.54 4.59-3.43 1.85-3.59 1.86-3.58 5.81-2.88L265 2.63l-2.93 5h8.83v8.71h-15.12c-1.59 0-2.58.4-2.71 2.33h14.18V51.1h-36.5V18.71c3.21 0 6.34-.06 9.47 0 1.5 0 2.4-.4 2.63-2.23-4.43 0-8.79-.06-13.14 0-1.43 0-2.58.09-2.31-2.05l-.56-.13-6.09 7.39zm32.66 19.52H257c.54-1.69-.16-2.11-1.59-2.09-4.41 0-8.82.06-13.23 0-1.61-.03-1.99.6-1.52 2.09zm16.72 6.54l-.6-.57h-16.19l-.37.65c.55.42 1.1 1.21 1.66 1.22q7 .15 13.94 0c.53-.03 1.04-.86 1.56-1.31zm-.47 9.21c.59-1.54.06-2-1.42-2q-6.7.06-13.4 0c-1.57 0-1.93.59-1.37 2zM115.73 34.07L127.71 3l42.67 13.77-19.27 46.86-19.48-8 11.67-27.34-5.3-2.39-5.76 14.57zM56.49 22.55l.74 17.93-14.23.74-4.48 24.93-20.58-4.3 5.45-20.25-20.29 1V25.06zM97 16.58l14.19 5.92L95.29 65l-18.22-8.27 9.93-20-6 2.08L74 18l14-2 2.65 13.32z"/><path d="M211.79 64.28l-4.36-10.6c2.49-1.6 4.87-3.09 7.2-4.66.53-.36 1.19-1 1.21-1.56.1-3.76.06-7.52.06-11.42h-6.95v-9.8h16.85v19.68c0 3.26 1.31 5.45 4.5 6.24a39.71 39.71 0 0 0 9.7 1.38c10.07-.09 20.13-.53 30.19-.83h2.34l-2.47 10.36c-1.1.05-2.26.15-3.43.15-10.07 0-20.16.26-30.21-.2-8.31-.38-9-1.06-15.32-6zM50 19.3L7.81 21 7 3.74l42.07-1.66zM61 22.82l12.6-1.71L80 39.43l-11.29 4.4zM188.92 8.2a8.27 8.27 0 0 1 8.53 8.46 8.46 8.46 0 0 1-8.53 8.53c-4.76 0-8.42-3.88-8.42-8.91a8.31 8.31 0 0 1 8.42-8.08zM180.51 53.48a8.48 8.48 0 0 1 16.94.44 8.48 8.48 0 1 1-16.94-.44z"/></svg>
